<?xml version="1.0" standalone="no"?>
<!DOCTYPE svg PUBLIC "-//W3C//DTD SVG 20010904//EN"
 "http://www.w3.org/TR/2001/REC-SVG-20010904/DTD/svg10.dtd">
<svg version="1.0" xmlns="http://www.w3.org/2000/svg"
 width="256.000000pt" height="256.000000pt" viewBox="0 0 256.000000 256.000000"
 preserveAspectRatio="xMidYMid meet">

<g transform="translate(0.000000,256.000000) scale(0.100000,-0.100000)"
fill="#000000" stroke="none">
<path d="M1055 2197 c-144 -22 -175 -31 -245 -69 -103 -55 -143 -98 -169 -182
-12 -38 -21 -85 -21 -105 0 -23 -11 -52 -30 -81 -24 -36 -30 -56 -30 -100 0
-91 21 -134 34 -70 5 29 7 30 60 30 46 0 56 3 70 25 15 22 15 28 2 54 -18 34
-41 45 -67 31 -24 -13 -26 6 -3 38 17 25 22 26 61 11 39 -16 67 -18 75 -6 4 7
11 7 21 -1 18 -15 27 -6 27 30 0 16 5 27 11 26 6 -2 14 10 16 27 2 16 6 31 7
33 2 1 16 -22 32 -52 30 -58 58 -83 77 -68 7 5 27 10 46 10 29 1 44 -10 109
-75 42 -41 86 -82 99 -90 24 -16 33 -40 11 -27 -7 4 -3 -4 10 -18 12 -13 22
-27 22 -31 0 -4 13 -34 29 -68 45 -91 37 -148 -41 -304 -16 -33 -40 -71 -53
-85 -33 -36 -45 -64 -45 -103 0 -19 -6 -39 -12 -44 -60 -47 -282 -66 -461 -39
-151 23 -153 22 -173 -19 -9 -19 -19 -35 -23 -35 -4 0 -15 -26 -25 -57 -10
-32 -22 -68 -27 -81 -5 -13 -9 -34 -9 -47 0 -29 -16 -34 -23 -7 -3 13 -7 10
-16 -13 -7 -16 -19 -38 -28 -47 -16 -18 -22 -95 -9 -116 4 -7 5 -16 1 -22 -8
-12 25 -49 39 -44 8 3 9 -18 6 -71 -3 -41 -8 -74 -13 -73 -14 5 -47 -62 -46
-95 l1 -32 10 35 c6 19 12 41 14 49 3 8 7 11 10 8 9 -9 -26 -107 -37 -104 -12
3 -59 -81 -59 -105 0 -17 18 -18 260 -18 l260 0 6 28 c3 15 17 46 31 70 l24
42 -20 95 c-16 70 -20 126 -19 222 1 108 -2 136 -20 179 -11 27 -23 71 -27 97
-7 46 -6 47 18 47 14 0 29 4 32 10 9 15 130 47 230 60 50 7 107 16 128 20 28
6 41 4 52 -6 8 -8 20 -14 27 -13 27 3 37 -2 43 -22 6 -17 -4 -32 -41 -72 -27
-27 -43 -47 -36 -43 6 4 12 3 12 -2 0 -5 10 -8 23 -8 19 1 21 -3 18 -29 l-3
-30 23 20 c13 10 38 35 56 54 18 19 35 32 38 29 6 -6 -29 -72 -55 -103 -25
-29 -72 -127 -57 -119 6 4 -4 -9 -23 -28 -19 -19 -43 -50 -53 -69 l-19 -34 24
25 c13 14 30 37 39 50 9 14 19 23 22 20 3 -3 -11 -30 -32 -60 -21 -31 -41 -66
-45 -78 -4 -12 -11 -20 -16 -17 -5 3 -9 -3 -9 -12 0 -99 -11 -204 -24 -233
l-15 -35 -2 35 -1 35 -13 -35 c-7 -19 -16 -48 -20 -63 l-7 -28 79 2 c72 2 79
4 75 20 -7 26 5 71 17 64 5 -3 7 1 4 9 -3 8 10 38 29 68 39 61 136 168 137
152 0 -6 -9 -19 -20 -29 -42 -38 -145 -235 -122 -235 4 0 19 31 34 68 16 37
44 87 63 111 40 50 47 43 11 -10 -21 -31 -56 -103 -56 -116 0 -2 5 -1 10 2 6
4 -3 -16 -20 -43 -16 -27 -30 -52 -30 -56 0 -3 101 -6 224 -6 l224 0 7 38 c5
23 10 32 14 22 3 -8 13 -25 21 -38 l15 -22 372 0 373 0 0 650 c0 358 -4 650
-8 650 -5 0 -39 18 -76 41 -36 22 -74 38 -84 35 -9 -2 -27 -7 -39 -11 -20 -5
-24 0 -42 63 -12 40 -21 98 -21 138 0 105 -64 293 -119 351 -20 21 -77 43
-113 43 -10 0 -35 15 -55 33 -21 17 -53 43 -72 56 l-34 24 -56 -23 c-31 -12
-65 -32 -77 -45 -24 -26 -25 -26 -120 45 -66 50 -141 80 -202 80 -22 0 -45 9
-64 25 -27 23 -81 33 -148 27 -8 -1 -24 3 -35 8 -30 13 -83 16 -140 7z m-50
-344 c5 -20 3 -23 -19 -23 -32 0 -39 13 -31 51 7 30 8 31 25 13 10 -11 21 -29
25 -41z m868 -124 c-8 -29 -13 -23 -13 14 0 22 3 28 9 18 5 -7 6 -22 4 -32z
m137 -39 c4 -3 13 -49 20 -102 6 -54 15 -111 20 -127 10 -36 3 -68 -21 -100
l-19 -23 -12 28 c-14 34 -24 312 -12 352 l8 27 4 -25 c2 -14 8 -27 12 -30z
m-357 -416 c-10 -75 -19 -104 -45 -137 -30 -38 -54 -44 -52 -13 1 9 -2 16 -6
16 -10 0 5 79 18 92 6 6 8 17 5 26 -4 10 -2 13 5 8 6 -4 21 3 32 14 25 25 46
21 43 -6z m484 -76 c10 -24 17 -49 17 -55 -1 -7 -2 -21 -3 -30 -1 -16 -2 -16
-18 0 -11 11 -18 36 -19 72 -1 30 0 55 2 55 2 0 12 -19 21 -42z m-644 -98 c-3
-11 -14 -20 -24 -20 -12 0 -23 -10 -29 -25 -8 -22 -13 -24 -30 -15 -24 13 -28
55 -4 46 11 -4 18 1 21 15 4 14 12 19 24 16 11 -3 22 -1 25 4 9 16 22 0 17
-21z m705 5 c-3 -3 -9 2 -12 12 -6 14 -5 15 5 6 7 -7 10 -15 7 -18z m22 -30
c20 -24 6 -28 -15 -5 -10 11 -13 20 -8 20 6 0 16 -7 23 -15z m-670 1 c0 -3 -4
-8 -10 -11 -5 -3 -10 -1 -10 4 0 6 5 11 10 11 6 0 10 -2 10 -4z m290 -29 c0
-2 -10 -12 -22 -23 l-23 -19 19 23 c18 21 26 27 26 19z m240 -194 c-15 -53
-23 3 -14 105 l8 97 7 -87 c4 -48 4 -100 -1 -115z m-875 151 c-5 -48 -15 -56
-15 -12 0 29 6 48 16 48 1 0 1 -16 -1 -36z m35 15 c0 -5 -4 -9 -10 -9 -5 0
-10 7 -10 16 0 8 5 12 10 9 6 -3 10 -10 10 -16z m538 -36 c-8 -10 -27 -39 -42
-65 -28 -50 -36 -57 -36 -34 0 15 76 116 87 116 3 0 -1 -8 -9 -17z m-204 -98
c-9 -14 -18 -25 -21 -25 -5 0 5 18 20 38 17 22 18 13 1 -13z m290 -32 c-9 -78
-14 -79 -14 -5 0 35 4 62 10 62 6 0 8 -21 4 -57z m-91 13 c-3 -14 -12 -31 -21
-38 -12 -10 -14 -10 -8 0 4 7 2 12 -4 12 -7 0 -4 12 6 29 20 35 33 33 27 -3z
m173 -21 c-9 -13 -16 -32 -16 -42 0 -10 -5 -25 -11 -33 -8 -11 -9 -5 -4 25 8
47 36 106 43 87 2 -7 -3 -24 -12 -37z m30 -34 c0 -32 -5 -57 -10 -54 -4 3 -12
-1 -17 -8 -5 -9 -6 6 -2 36 3 28 10 52 15 53 4 2 8 10 8 18 0 8 2 14 4 14 2 0
3 -27 2 -59z m-297 -2 c-6 -24 -14 -38 -16 -32 -5 15 17 87 24 80 2 -3 -1 -25
-8 -48z m522 -69 c18 -48 25 -72 28 -103 1 -5 7 -5 14 -1 6 4 9 4 5 0 -3 -4 0
-22 7 -39 7 -18 11 -56 9 -87 -2 -30 -3 -59 -4 -65 0 -5 -9 1 -20 15 -14 17
-20 20 -20 10 -1 -10 -4 -8 -9 5 -5 11 -6 43 -4 70 3 39 -4 69 -31 140 -19 51
-39 89 -46 87 -6 -1 -9 2 -5 8 4 6 -1 22 -10 36 -25 39 -8 46 30 11 20 -18 44
-56 56 -87z m-677 39 c-27 -67 -42 -91 -29 -49 12 40 47 121 51 117 2 -2 -8
-33 -22 -68z m-768 -11 c4 -22 1 -46 -9 -64 l-15 -29 -11 27 c-5 15 -7 50 -4
78 5 44 8 49 20 37 7 -7 16 -29 19 -49z m1555 0 c-3 -37 -5 -40 -12 -20 -9 24
0 90 10 73 4 -5 5 -29 2 -53z m-406 -74 c18 -43 19 -52 5 -38 -11 11 -32 74
-24 74 2 0 11 -16 19 -36z m-559 -83 c-4 -5 -1 -11 4 -13 6 -2 -1 -19 -16 -38
-22 -30 -25 -31 -19 -10 13 44 24 70 30 70 4 0 4 -4 1 -9z m-932 -100 c3 -65
0 -91 -8 -88 -10 3 -17 160 -8 180 9 19 13 -5 16 -92z m96 74 c0 6 5 3 10 -5
14 -22 12 -60 -4 -60 -14 0 -26 29 -26 65 0 17 2 17 10 5 5 -8 10 -10 10 -5z
m1910 -76 c40 -51 54 -83 25 -59 -8 7 -15 9 -15 4 0 -11 -31 34 -34 49 -1 7
-8 22 -14 35 -21 37 -5 25 38 -29z m-1983 -41 c-3 -8 -6 -5 -6 6 -1 11 2 17 5
13 3 -3 4 -12 1 -19z m2012 -115 c18 -11 19 -10 10 19 -13 46 -2 48 16 3 18
-41 26 -118 14 -136 -7 -12 -26 24 -47 86 -6 17 -11 23 -12 15 0 -8 -7 3 -15
25 -19 52 -19 68 0 30 9 -17 24 -36 34 -42z m-160 -35 c11 -18 36 -57 56 -85
19 -29 30 -53 24 -53 -5 0 -7 -6 -3 -12 3 -7 -6 1 -20 17 -30 34 -65 97 -77
137 -10 36 -6 35 20 -4z m-1088 -89 c-9 -22 -10 -22 -10 -3 -1 11 2 24 6 27
12 12 14 0 4 -24z m283 -11 c-3 -7 -17 -22 -32 -32 -27 -19 -27 -19 2 12 32
35 38 38 30 20z m-727 -83 c-9 -8 -17 -20 -20 -27 -2 -7 -7 -11 -10 -8 -3 3 4
26 15 50 18 38 22 42 25 22 3 -12 -2 -29 -10 -37z m1059 -41 c3 -22 2 -25 -6
-14 -10 15 -14 58 -5 48 3 -3 8 -18 11 -34z m537 -19 c-3 -9 -8 -14 -10 -11
-3 3 -2 9 2 15 9 16 15 13 8 -4z m191 7 c3 -5 -1 -9 -9 -9 -8 0 -15 4 -15 9 0
4 4 8 9 8 6 0 12 -4 15 -8z m-160 -30 c3 -5 -1 -9 -9 -9 -8 0 -12 4 -9 9 7 10
11 10 18 0z"/>
<path d="M1751 854 c0 -11 3 -14 6 -6 3 7 2 16 -1 19 -3 4 -6 -2 -5 -13z"/>
<path d="M980 1698 c0 -5 -6 -8 -12 -8 -7 0 -23 -21 -36 -45 l-22 -45 24 0
c13 0 60 -10 103 -23 78 -23 109 -24 97 -6 -3 5 10 9 28 9 30 1 31 2 16 14
-10 7 -18 17 -18 21 0 13 -53 55 -90 72 -37 17 -90 23 -90 11z m-3 -85 c-3 -3
-11 -2 -17 2 -8 5 -7 11 2 22 12 15 13 14 16 -1 2 -10 1 -20 -1 -23z m103 2
c10 -13 9 -15 -8 -15 -15 0 -20 5 -16 15 4 8 7 15 9 15 1 0 8 -7 15 -15z"/>
<path d="M620 1405 c7 -8 17 -15 22 -15 6 0 5 7 -2 15 -7 8 -17 15 -22 15 -6
0 -5 -7 2 -15z"/>
<path d="M683 1408 c2 -7 10 -13 18 -13 8 -1 24 -6 37 -13 27 -15 29 -2 4 21
-22 20 -66 23 -59 5z"/>
<path d="M585 1280 c-16 -18 -25 -84 -13 -94 9 -8 89 -13 82 -6 -5 5 -22 11
-39 13 -23 3 -29 8 -27 23 7 38 24 47 77 41 27 -3 73 -15 100 -28 28 -12 56
-21 64 -20 8 1 18 -3 22 -11 6 -9 11 -10 19 -2 9 9 -13 20 -87 45 -54 19 -105
33 -113 32 -8 -1 -19 5 -23 13 -11 20 -41 17 -62 -6z"/>
<path d="M446 1159 c-21 -45 -43 -111 -51 -148 -7 -36 -22 -86 -34 -111 -11
-25 -20 -61 -20 -80 l2 -35 6 40 c9 54 53 109 107 137 40 20 64 48 29 35 -10
-5 -9 2 5 26 17 27 19 43 14 97 -4 36 -8 67 -10 69 -3 3 -11 -4 -20 -15 -14
-18 -14 -17 -3 6 13 25 22 60 15 60 -2 0 -20 -37 -40 -81z m30 -51 c-2 -18 -7
-42 -12 -53 -10 -26 -56 -87 -61 -81 -2 2 5 31 15 63 32 96 67 138 58 71z"/>
<path d="M678 1179 c-18 -11 85 -20 117 -11 26 8 20 10 -39 13 -37 2 -73 1
-78 -2z"/>
<path d="M863 380 c6 -86 36 -184 80 -262 23 -42 32 -46 41 -22 11 29 6 60
-19 123 -14 34 -22 67 -19 73 4 6 3 8 -2 5 -6 -3 -23 29 -39 71 -40 110 -48
112 -42 12z"/>
<path d="M250 28 c0 -18 5 -28 15 -28 19 0 19 11 0 36 -14 18 -14 18 -15 -8z"/>
<path d="M937 30 c-16 -22 -16 -25 -1 -28 21 -5 26 2 22 30 l-3 23 -18 -25z"/>
<path d="M1287 33 c-4 -3 -7 -13 -7 -22 1 -13 3 -13 11 2 11 19 8 33 -4 20z"/>
</g>
</svg>
